<svg width="27" height="28" viewBox="0 0 27 28" fill="none" xmlns="http://www.w3.org/2000/svg">
<path d="M8.1595 10.228C8.42745 10.228 8.68442 10.3246 8.87389 10.4966C9.06336 10.6685 9.1698 10.9017 9.1698 11.1449V22.147C9.1698 22.3901 9.06336 22.6233 8.87389 22.7953C8.68442 22.9672 8.42745 23.0638 8.1595 23.0638C7.89155 23.0638 7.63458 22.9672 7.44511 22.7953C7.25564 22.6233 7.1492 22.3901 7.1492 22.147V11.1449C7.1492 10.9017 7.25564 10.6685 7.44511 10.4966C7.63458 10.3246 7.89155 10.228 8.1595 10.228ZM13.211 10.228C13.479 10.228 13.7359 10.3246 13.9254 10.4966C14.1149 10.6685 14.2213 10.9017 14.2213 11.1449V22.147C14.2213 22.3901 14.1149 22.6233 13.9254 22.7953C13.7359 22.9672 13.479 23.0638 13.211 23.0638C12.9431 23.0638 12.6861 22.9672 12.4966 22.7953C12.3072 22.6233 12.2007 22.3901 12.2007 22.147V11.1449C12.2007 10.9017 12.3072 10.6685 12.4966 10.4966C12.6861 10.3246 12.9431 10.228 13.211 10.228ZM19.2728 11.1449C19.2728 10.9017 19.1664 10.6685 18.9769 10.4966C18.7874 10.3246 18.5305 10.228 18.2625 10.228C17.9946 10.228 17.7376 10.3246 17.5481 10.4966C17.3587 10.6685 17.2522 10.9017 17.2522 11.1449V22.147C17.2522 22.3901 17.3587 22.6233 17.5481 22.7953C17.7376 22.9672 17.9946 23.0638 18.2625 23.0638C18.5305 23.0638 18.7874 22.9672 18.9769 22.7953C19.1664 22.6233 19.2728 22.3901 19.2728 22.147V11.1449Z" fill="#DEEBFF"/>
<path d="M26.3449 5.64388C26.3449 6.1302 26.132 6.5966 25.7531 6.94049C25.3742 7.28437 24.8602 7.47756 24.3243 7.47756H23.314V23.9807C23.314 24.9534 22.8883 25.8862 22.1304 26.5739C21.3725 27.2617 20.3446 27.6481 19.2728 27.6481H7.1492C6.0774 27.6481 5.04951 27.2617 4.29163 26.5739C3.53376 25.8862 3.10799 24.9534 3.10799 23.9807V7.47756H2.09769C1.56179 7.47756 1.04785 7.28437 0.668908 6.94049C0.289972 6.5966 0.0770874 6.1302 0.0770874 5.64388V3.81019C0.0770874 3.32387 0.289972 2.85746 0.668908 2.51358C1.04785 2.1697 1.56179 1.97651 2.09769 1.97651H9.1698C9.1698 1.49018 9.38269 1.02378 9.76162 0.679896C10.1406 0.336013 10.6545 0.142822 11.1904 0.142822L15.2316 0.142822C15.7675 0.142822 16.2815 0.336013 16.6604 0.679896C17.0393 1.02378 17.2522 1.49018 17.2522 1.97651H24.3243C24.8602 1.97651 25.3742 2.1697 25.7531 2.51358C26.132 2.85746 26.3449 3.32387 26.3449 3.81019V5.64388ZM5.36703 7.47756L5.1286 7.58575V23.9807C5.1286 24.467 5.34148 24.9334 5.72042 25.2773C6.09935 25.6212 6.6133 25.8144 7.1492 25.8144H19.2728C19.8087 25.8144 20.3227 25.6212 20.7016 25.2773C21.0805 24.9334 21.2934 24.467 21.2934 23.9807V7.58575L21.055 7.47756H5.36703ZM2.09769 5.64388H24.3243V3.81019H2.09769V5.64388Z" fill="#DEEBFF"/>
</svg>
