<svg width="31" height="30" viewBox="0 0 31 30" fill="none" xmlns="http://www.w3.org/2000/svg">
<path d="M28.625 15.0001C28.2382 15.0001 27.8673 15.1493 27.5938 15.415C27.3203 15.6807 27.1667 16.041 27.1667 16.4167V24.9167C27.1667 25.2925 27.013 25.6528 26.7395 25.9185C26.466 26.1842 26.0951 26.3334 25.7083 26.3334H5.29166C4.90488 26.3334 4.53395 26.1842 4.26046 25.9185C3.98697 25.6528 3.83332 25.2925 3.83332 24.9167V5.08341C3.83332 4.70769 3.98697 4.34735 4.26046 4.08167C4.53395 3.816 4.90488 3.66674 5.29166 3.66674H14.0417C14.4284 3.66674 14.7994 3.51749 15.0729 3.25181C15.3463 2.98613 15.5 2.6258 15.5 2.25008C15.5 1.87435 15.3463 1.51402 15.0729 1.24834C14.7994 0.982665 14.4284 0.83341 14.0417 0.83341H5.29166C4.13133 0.83341 3.01854 1.28118 2.19806 2.07821C1.37759 2.87524 0.916656 3.95624 0.916656 5.08341V24.9167C0.916656 26.0439 1.37759 27.1249 2.19806 27.9219C3.01854 28.719 4.13133 29.1667 5.29166 29.1667H25.7083C26.8686 29.1667 27.9814 28.719 28.8019 27.9219C29.6224 27.1249 30.0833 26.0439 30.0833 24.9167V16.4167C30.0833 16.041 29.9297 15.6807 29.6562 15.415C29.3827 15.1493 29.0118 15.0001 28.625 15.0001ZM6.74999 16.0767V22.0834C6.74999 22.4591 6.90364 22.8195 7.17713 23.0851C7.45062 23.3508 7.82155 23.5001 8.20832 23.5001H14.3917C14.5836 23.5012 14.7738 23.4654 14.9515 23.3949C15.1292 23.3244 15.2908 23.2205 15.4271 23.0892L25.5187 13.2717L29.6604 9.33341C29.7971 9.20171 29.9056 9.04503 29.9796 8.87239C30.0537 8.69976 30.0918 8.51459 30.0918 8.32758C30.0918 8.14056 30.0537 7.95539 29.9796 7.78276C29.9056 7.61012 29.7971 7.45344 29.6604 7.32174L23.4771 1.24424C23.3415 1.11146 23.1802 1.00607 23.0025 0.934147C22.8248 0.862224 22.6342 0.825195 22.4417 0.825195C22.2491 0.825195 22.0585 0.862224 21.8808 0.934147C21.7031 1.00607 21.5418 1.11146 21.4062 1.24424L17.2937 5.25341L7.17291 15.0709C7.03775 15.2033 6.93081 15.3603 6.85824 15.5329C6.78567 15.7055 6.74888 15.8903 6.74999 16.0767ZM22.4417 4.24758L26.5687 8.25674L24.4979 10.2684L20.3708 6.25924L22.4417 4.24758ZM9.66666 16.6576L18.3146 8.25674L22.4417 12.2659L13.7937 20.6667H9.66666V16.6576Z" fill="#DEEBFF"/>
</svg>
